# xmcd CD database file
#
# Track frame offsets:
#	150
#	20126
#	33898
#	50324
#	68133
#	88241
#	112667
#	134969
#	147558
#	169905
#	183903
#	197214
#	211568
#	225239
#	241924
#	258382
#	277991
#	303845
#
# Disc length: 4265 seconds
#
# Revision: 0
# Processed by: cddbd v1.5.2PL0 Copyright (c) Steve Scherf et al.
# Submitted via: CDex 1.51
#
DISCID=f910a712
DTITLE=Dixieland - Jazzszene Hamburg 1998 
DYEAR=1998
DGENRE=Jazz
TTITLE0=Addi Münsters Old Time Merrytale Jazzband/Saratoga shout
TTITLE1=Ladi Geisler/Minor swing
TTITLE2=Black Jass/Jungle crawl
TTITLE3=Eine kleine Nachtmusik/The lady is a tramp
TTITLE4=Harlem Jump/Malibu
TTITLE5=Abbi Hübner's Low Down Wizards/Some of these days
TTITLE6=Swing Ltd./Summertime
TTITLE7=Hot Shots/Alligator hop
TTITLE8=Blackbirds of Paradise/Is you is or is you ain't my baby
TTITLE9=The Gramophones/Sentimental gentleman from Georgia
TTITLE10=Canal Street Jazzband/Venetian moon
TTITLE11=Jazz Train/Bernie's tune
TTITLE12=Skiffle Track/Take this hammer
TTITLE13=Jazz O'Maniacs/Lonesome blues
TTITLE14=Norbert Susemihl's Arlington Annex/High heels
TTITLE15=Apex Jazz Band/Little ole winedrinker, me
TTITLE16=Jazz Lips/Martinique (de Paris)
TTITLE17=Traditional Old Merrytale Jazzband/Stevedore stomp
EXTD=YEAR: 1998
EXTT0=
EXTT1=
EXTT2=
EXTT3=
EXTT4=
EXTT5=
EXTT6=
EXTT7=
EXTT8=
EXTT9=
EXTT10=
EXTT11=
EXTT12=
EXTT13=
EXTT14=
EXTT15=
EXTT16=
EXTT17=
PLAYORDER=
